<svg width="30" height="30" viewBox="0 0 30 30" fill="none" xmlns="http://www.w3.org/2000/svg">
<path d="M29.3257 9.20089C29.1118 9.00086 28.8573 8.84223 28.5769 8.73418C28.2965 8.62613 27.9959 8.57081 27.6923 8.57143H23.0769V7.5C23.0769 5.51088 22.226 3.60322 20.7112 2.1967C19.1965 0.790176 17.1421 0 15 0C12.8579 0 10.8035 0.790176 9.28875 2.1967C7.77403 3.60322 6.92307 5.51088 6.92307 7.5V8.57143H2.30769C1.69565 8.57143 1.10868 8.79719 0.675907 9.19906C0.243131 9.60092 0 10.146 0 10.7143V25.1786C0 27.7902 2.37981 30 5.19231 30H24.8077C26.1681 30.0004 27.4747 29.5065 28.4481 28.6239C28.9379 28.19 29.3279 27.6684 29.5947 27.0906C29.8614 26.5129 29.9993 25.8909 30 25.2623V10.7143C30.0009 10.4332 29.9418 10.1547 29.8261 9.89488C29.7103 9.63511 29.5403 9.39923 29.3257 9.20089ZM9.23077 7.5C9.23077 6.0792 9.83859 4.71659 10.9205 3.71193C12.0025 2.70727 13.4699 2.14286 15 2.14286C16.5301 2.14286 17.9975 2.70727 19.0795 3.71193C20.1614 4.71659 20.7692 6.0792 20.7692 7.5V8.57143H9.23077V7.5Z" fill="#FBAF00"/>
</svg>
