<svg width="20" height="20" viewBox="0 0 20 20" fill="none" xmlns="http://www.w3.org/2000/svg">
<path d="M17.6061 3.74375C17.5301 3.37125 17.3141 3.09 17.0671 3.00375C16.6292 2.85 14.5003 2.5 10.0005 2.5C5.50073 2.5 3.37283 2.85 2.93185 3.00375C2.68787 3.08875 2.47188 3.37 2.39488 3.74375C2.28589 4.27375 2.0009 6.49375 2.0009 10C2.0009 13.505 2.28589 15.725 2.39488 16.2575C2.47088 16.6288 2.68687 16.91 2.93285 16.995C3.37283 17.15 5.49973 17.5 9.9995 17.5C14.4993 17.5 16.6282 17.15 17.0681 16.9963C17.3121 16.9113 17.5281 16.63 17.6051 16.2562C17.7151 15.7262 17.9991 13.5 17.9991 10C17.9991 6.5 17.7151 4.275 17.6061 3.74375ZM19.543 3.1225C20 5.35 20 10 20 10C20 10 20 14.65 19.543 16.8775C19.289 18.1088 18.5461 19.0775 17.6051 19.405C15.8962 20 9.9995 20 9.9995 20C9.9995 20 4.10679 20 2.39488 19.405C1.44993 19.0725 0.707965 18.105 0.456977 16.8775C2.98008e-08 14.65 0 10 0 10C0 10 2.98008e-08 5.35 0.456977 3.1225C0.710965 1.89125 1.45393 0.9225 2.39488 0.595C4.10779 -2.23517e-07 10.0005 0 10.0005 0C10.0005 0 15.8962 -2.23517e-07 17.6051 0.595C18.5491 0.9275 19.292 1.895 19.543 3.1225ZM8.0006 14.375V5.625L14.0003 10L8.0006 14.375Z" fill="#FBAF00"/>
</svg>
