<svg width="20" height="20" viewBox="0 0 20 20" fill="none" xmlns="http://www.w3.org/2000/svg">
<path d="M9.89136 4.63208C8.52934 4.63208 7.2231 5.1723 6.26001 6.1339C5.29692 7.09549 4.75586 8.3997 4.75586 9.7596C4.75586 11.1195 5.29692 12.4237 6.26001 13.3853C7.2231 14.3469 8.52934 14.8871 9.89136 14.8871C11.2534 14.8871 12.5596 14.3469 13.5227 13.3853C14.4858 12.4237 15.0269 11.1195 15.0269 9.7596C15.0269 8.3997 14.4858 7.09549 13.5227 6.1339C12.5596 5.1723 11.2534 4.63208 9.89136 4.63208ZM9.89136 13.0896C9.00651 13.0896 8.15792 12.7387 7.53224 12.1139C6.90656 11.4892 6.55506 10.642 6.55506 9.75849C6.55506 8.87503 6.90656 8.02775 7.53224 7.40304C8.15792 6.77834 9.00651 6.42738 9.89136 6.42738C10.7762 6.42738 11.6248 6.77834 12.2505 7.40304C12.8761 8.02775 13.2277 8.87503 13.2277 9.75849C13.2277 10.642 12.8761 11.4892 12.2505 12.1139C11.6248 12.7387 10.7762 13.0896 9.89136 13.0896Z" fill="#FBAF00"/>
<path d="M15.2285 5.63858C15.8897 5.63858 16.4257 5.10338 16.4257 4.44319C16.4257 3.783 15.8897 3.2478 15.2285 3.2478C14.5673 3.2478 14.0312 3.783 14.0312 4.44319C14.0312 5.10338 14.5673 5.63858 15.2285 5.63858Z" fill="#FBAF00"/>
<path d="M19.4702 3.44422C19.2131 2.7813 18.8202 2.17929 18.3167 1.67671C17.8131 1.17414 17.21 0.78207 16.546 0.525615C15.7689 0.234372 14.948 0.0768919 14.1182 0.0598801C13.0486 0.0133066 12.7099 0 9.99778 0C7.28565 0 6.93803 -1.14164e-07 5.87739 0.0598801C5.04819 0.0760221 4.22785 0.233535 3.4518 0.525615C2.78758 0.781771 2.18432 1.17373 1.68074 1.67635C1.17715 2.17896 0.78435 2.78113 0.527543 3.44422C0.235789 4.22002 0.0784257 5.03974 0.0621946 5.86826C0.014438 6.93502 0 7.27323 0 9.98226C0 12.6902 -6.018e-09 13.035 0.0621946 14.0963C0.0788538 14.9257 0.235451 15.7441 0.527543 16.5214C0.785071 17.1843 1.17825 17.7862 1.68196 18.2887C2.18567 18.7913 2.78883 19.1834 3.45291 19.44C4.22749 19.743 5.04817 19.9117 5.87961 19.939C6.94913 19.9856 7.28787 20 10 20C12.7121 20 13.0598 20 14.1204 19.939C14.9501 19.9222 15.771 19.7651 16.5482 19.4744C17.2121 19.2173 17.815 18.8249 18.3185 18.3222C18.822 17.8195 19.215 17.2175 19.4725 16.5547C19.7645 15.7784 19.9211 14.9601 19.9378 14.1306C19.9856 13.0639 20 12.7257 20 10.0166C20 7.30761 20 6.96385 19.9378 5.90264C19.9249 5.0624 19.7667 4.2307 19.4702 3.44422ZM18.1175 14.0142C18.1103 14.6533 17.9935 15.2864 17.7721 15.886C17.6053 16.3172 17.35 16.7088 17.0225 17.0356C16.695 17.3623 16.3027 17.617 15.8707 17.7833C15.2768 18.0034 14.6494 18.12 14.016 18.1282C12.9609 18.177 12.6633 18.1892 9.9578 18.1892C7.25011 18.1892 6.97357 18.1892 5.89849 18.1282C5.26536 18.1205 4.6383 18.0038 4.04487 17.7833C3.61138 17.6181 3.21746 17.3638 2.88859 17.037C2.55973 16.7102 2.30324 16.318 2.13572 15.886C1.91742 15.2928 1.80066 14.6672 1.79032 14.0353C1.74256 12.9818 1.73145 12.6846 1.73145 9.98337C1.73145 7.28099 1.73145 7.00488 1.79032 5.93036C1.79749 5.29166 1.91432 4.65893 2.13572 4.05966C2.47446 3.18474 3.16859 2.49612 4.04487 2.16123C4.63859 1.94183 5.26547 1.8252 5.89849 1.81637C6.95469 1.76868 7.25122 1.75538 9.9578 1.75538C12.6644 1.75538 12.942 1.75538 14.016 1.81637C14.6495 1.82398 15.2769 1.94064 15.8707 2.16123C16.3027 2.32787 16.695 2.58284 17.0224 2.90977C17.3498 3.2367 17.6052 3.62838 17.7721 4.05966C17.9904 4.65286 18.1072 5.27851 18.1175 5.9104C18.1653 6.96496 18.1775 7.26103 18.1775 9.96341C18.1775 12.6647 18.1775 12.9552 18.1297 14.0153H18.1175V14.0142Z" fill="#FBAF00"/>
</svg>
