<svg width="44" height="44" viewBox="0 0 44 44" fill="none" xmlns="http://www.w3.org/2000/svg">
<path d="M30.6943 28.2275L29.5821 29.4C29.5821 29.4 26.9348 32.1849 19.7115 24.5806C12.4882 16.9763 15.1355 14.1914 15.1355 14.1914L15.8347 13.4511C17.5629 11.6342 17.7266 8.71461 16.2184 6.58188L13.1384 2.22585C11.2709 -0.414174 7.66538 -0.763588 5.5265 1.48819L1.68875 5.52587C0.630311 6.644 -0.0785737 8.08825 0.00698128 9.69297C0.22698 13.8005 1.98208 22.6342 11.7696 32.9407C22.1511 43.8683 31.8921 44.3031 35.8741 43.9097C37.1354 43.7855 38.2305 43.1074 39.1129 42.1756L42.584 38.521C44.9307 36.0544 44.2707 31.8226 41.2689 30.0962L36.6001 27.407C34.6299 26.2733 32.2343 26.6072 30.6943 28.2275Z" fill="black"/>
</svg>
