<svg width="44" height="44" viewBox="0 0 44 44" fill="none" xmlns="http://www.w3.org/2000/svg">
<path d="M37.4 0H6.6C4.84957 0 3.17084 0.869194 1.9331 2.41637C0.695355 3.96354 0 6.06196 0 8.25V35.75C0 37.938 0.695355 40.0365 1.9331 41.5836C3.17084 43.1308 4.84957 44 6.6 44H37.4C39.1504 44 40.8292 43.1308 42.0669 41.5836C43.3046 40.0365 44 37.938 44 35.75V8.25C44 6.06196 43.3046 3.96354 42.0669 2.41637C40.8292 0.869194 39.1504 0 37.4 0ZM37.4 5.5L23.1 17.7925C22.7656 18.0339 22.3862 18.1609 22 18.1609C21.6138 18.1609 21.2344 18.0339 20.9 17.7925L6.6 5.5H37.4Z" fill="black"/>
</svg>
